<mxfile host="app.diagrams.net" agent="Mozilla/5.0 (Windows NT 10.0; Win64; x64) AppleWebKit/537.36 (KHTML, like Gecko) Chrome/136.0.0.0 Safari/537.36" version="27.1.1" pages="3">
  <diagram id="HpbbwvrBHE9CEae5uztC" name="interaction">
    <mxGraphModel dx="2381" dy="815" grid="1" gridSize="10" guides="1" tooltips="1" connect="1" arrows="1" fold="1" page="1" pageScale="1" pageWidth="827" pageHeight="1169" math="0" shadow="0">
      <root>
        <mxCell id="0" />
        <mxCell id="1" parent="0" />
        <mxCell id="sRtQ8-Bqzg0NsSKTlcAB-8" value="I. detech_language" style="edgeStyle=orthogonalEdgeStyle;rounded=0;orthogonalLoop=1;jettySize=auto;html=1;exitX=1;exitY=0.5;exitDx=0;exitDy=0;endArrow=open;endFill=0;dashed=1;strokeWidth=2;entryX=0;entryY=0.5;entryDx=0;entryDy=0;fontSize=15;fontStyle=1" parent="1" source="sRtQ8-Bqzg0NsSKTlcAB-1" target="sRtQ8-Bqzg0NsSKTlcAB-6" edge="1">
          <mxGeometry relative="1" as="geometry">
            <mxPoint x="56" y="295" as="targetPoint" />
          </mxGeometry>
        </mxCell>
        <mxCell id="sRtQ8-Bqzg0NsSKTlcAB-1" value="Query" style="rounded=0;whiteSpace=wrap;html=1;fontSize=16;" parent="1" vertex="1">
          <mxGeometry x="-244" y="270" width="50" height="50" as="geometry" />
        </mxCell>
        <mxCell id="sRtQ8-Bqzg0NsSKTlcAB-11" style="edgeStyle=orthogonalEdgeStyle;rounded=0;orthogonalLoop=1;jettySize=auto;html=1;exitX=1;exitY=0.5;exitDx=0;exitDy=0;endArrow=open;endFill=0;dashed=1;strokeWidth=2;" parent="1" source="sRtQ8-Bqzg0NsSKTlcAB-6" target="sRtQ8-Bqzg0NsSKTlcAB-9" edge="1">
          <mxGeometry relative="1" as="geometry">
            <mxPoint x="143.5" y="320" as="sourcePoint" />
          </mxGeometry>
        </mxCell>
        <mxCell id="sRtQ8-Bqzg0NsSKTlcAB-30" style="edgeStyle=orthogonalEdgeStyle;rounded=0;orthogonalLoop=1;jettySize=auto;html=1;exitX=0.25;exitY=1;exitDx=0;exitDy=0;entryX=1;entryY=0.5;entryDx=0;entryDy=0;dashed=1;strokeWidth=2;endArrow=openThin;endFill=0;" parent="1" source="sRtQ8-Bqzg0NsSKTlcAB-4" target="sRtQ8-Bqzg0NsSKTlcAB-21" edge="1">
          <mxGeometry relative="1" as="geometry" />
        </mxCell>
        <mxCell id="sRtQ8-Bqzg0NsSKTlcAB-35" value="III.&amp;nbsp;estimate_complexity" style="edgeLabel;html=1;align=center;verticalAlign=middle;resizable=0;points=[];fontSize=15;fontStyle=1" parent="sRtQ8-Bqzg0NsSKTlcAB-30" vertex="1" connectable="0">
          <mxGeometry x="0.1962" y="-2" relative="1" as="geometry">
            <mxPoint x="-42" y="-48" as="offset" />
          </mxGeometry>
        </mxCell>
        <mxCell id="sRtQ8-Bqzg0NsSKTlcAB-36" value="IV. router_vote" style="edgeStyle=orthogonalEdgeStyle;rounded=0;orthogonalLoop=1;jettySize=auto;html=1;exitX=0.75;exitY=1;exitDx=0;exitDy=0;entryX=1;entryY=0.5;entryDx=0;entryDy=0;endArrow=open;endFill=0;strokeWidth=2;dashed=1;fontSize=15;fontStyle=1;fillColor=#dae8fc;strokeColor=#0000FF;fontColor=#0000FF;" parent="1" source="sRtQ8-Bqzg0NsSKTlcAB-4" target="sRtQ8-Bqzg0NsSKTlcAB-23" edge="1">
          <mxGeometry x="-0.3946" relative="1" as="geometry">
            <mxPoint as="offset" />
          </mxGeometry>
        </mxCell>
        <mxCell id="sRtQ8-Bqzg0NsSKTlcAB-41" style="edgeStyle=orthogonalEdgeStyle;rounded=0;orthogonalLoop=1;jettySize=auto;html=1;exitX=0.75;exitY=1;exitDx=0;exitDy=0;entryX=1;entryY=0.5;entryDx=0;entryDy=0;dashed=1;endArrow=open;endFill=0;strokeWidth=2;strokeColor=#0000FF;" parent="1" source="sRtQ8-Bqzg0NsSKTlcAB-4" target="sRtQ8-Bqzg0NsSKTlcAB-40" edge="1">
          <mxGeometry relative="1" as="geometry" />
        </mxCell>
        <mxCell id="sRtQ8-Bqzg0NsSKTlcAB-4" value="text" style="rounded=0;whiteSpace=wrap;html=1;fontSize=16;" parent="1" vertex="1">
          <mxGeometry x="363.5" y="400" width="50" height="50" as="geometry" />
        </mxCell>
        <mxCell id="sRtQ8-Bqzg0NsSKTlcAB-6" value="&lt;a href=&quot;https://github.com/saffsd/langid.py&quot;&gt;langid&lt;/a&gt;" style="rounded=0;whiteSpace=wrap;html=1;fontSize=16;dashed=1;fontColor=default;" parent="1" vertex="1">
          <mxGeometry x="-4" y="270" width="260" height="50" as="geometry" />
        </mxCell>
        <mxCell id="sRtQ8-Bqzg0NsSKTlcAB-15" style="edgeStyle=orthogonalEdgeStyle;rounded=0;orthogonalLoop=1;jettySize=auto;html=1;exitX=0.5;exitY=1;exitDx=0;exitDy=0;endArrow=open;endFill=0;dashed=1;strokeWidth=2;" parent="1" source="sRtQ8-Bqzg0NsSKTlcAB-9" target="sRtQ8-Bqzg0NsSKTlcAB-13" edge="1">
          <mxGeometry relative="1" as="geometry" />
        </mxCell>
        <mxCell id="sRtQ8-Bqzg0NsSKTlcAB-9" value="lang" style="rounded=0;whiteSpace=wrap;html=1;fontSize=16;" parent="1" vertex="1">
          <mxGeometry x="363.5" y="270" width="50" height="50" as="geometry" />
        </mxCell>
        <mxCell id="sRtQ8-Bqzg0NsSKTlcAB-14" value="II. translate" style="edgeStyle=orthogonalEdgeStyle;rounded=0;orthogonalLoop=1;jettySize=auto;html=1;exitX=0.5;exitY=1;exitDx=0;exitDy=0;entryX=0;entryY=0.5;entryDx=0;entryDy=0;dashed=1;strokeWidth=2;fontSize=15;fontStyle=1" parent="1" source="sRtQ8-Bqzg0NsSKTlcAB-1" target="sRtQ8-Bqzg0NsSKTlcAB-13" edge="1">
          <mxGeometry x="-0.5477" relative="1" as="geometry">
            <mxPoint x="-89" y="485" as="sourcePoint" />
            <mxPoint as="offset" />
          </mxGeometry>
        </mxCell>
        <mxCell id="sRtQ8-Bqzg0NsSKTlcAB-29" style="edgeStyle=orthogonalEdgeStyle;rounded=0;orthogonalLoop=1;jettySize=auto;html=1;exitX=1;exitY=0.5;exitDx=0;exitDy=0;entryX=0;entryY=0.5;entryDx=0;entryDy=0;dashed=1;strokeWidth=2;endArrow=open;endFill=0;" parent="1" source="sRtQ8-Bqzg0NsSKTlcAB-13" target="sRtQ8-Bqzg0NsSKTlcAB-4" edge="1">
          <mxGeometry relative="1" as="geometry" />
        </mxCell>
        <mxCell id="sRtQ8-Bqzg0NsSKTlcAB-13" value="&lt;span style=&quot;text-wrap-mode: nowrap;&quot;&gt;&lt;a href=&quot;https://github.com/Helsinki-NLP/Opus-MT&quot;&gt;Helsinki-NLP/opus-mt-{lang}-en&lt;/a&gt;&lt;/span&gt;" style="rounded=0;whiteSpace=wrap;html=1;fontSize=16;dashed=1;" parent="1" vertex="1">
          <mxGeometry x="-2" y="400" width="256" height="50" as="geometry" />
        </mxCell>
        <mxCell id="sRtQ8-Bqzg0NsSKTlcAB-24" value="learn_few_shots_complexity" style="edgeStyle=orthogonalEdgeStyle;rounded=0;orthogonalLoop=1;jettySize=auto;html=1;exitX=0.5;exitY=0;exitDx=0;exitDy=0;entryX=0.5;entryY=1;entryDx=0;entryDy=0;endArrow=open;endFill=0;dashed=1;" parent="1" source="sRtQ8-Bqzg0NsSKTlcAB-19" target="sRtQ8-Bqzg0NsSKTlcAB-21" edge="1">
          <mxGeometry relative="1" as="geometry" />
        </mxCell>
        <mxCell id="sRtQ8-Bqzg0NsSKTlcAB-25" value="learn_few_shots_tasks" style="edgeStyle=orthogonalEdgeStyle;rounded=0;orthogonalLoop=1;jettySize=auto;html=1;exitX=0.5;exitY=1;exitDx=0;exitDy=0;dashed=1;endArrow=open;endFill=0;" parent="1" source="sRtQ8-Bqzg0NsSKTlcAB-19" target="sRtQ8-Bqzg0NsSKTlcAB-23" edge="1">
          <mxGeometry relative="1" as="geometry" />
        </mxCell>
        <mxCell id="sRtQ8-Bqzg0NsSKTlcAB-19" value="&lt;a href=&quot;https://huggingface.co/distilbert/distilbert-base-cased&quot;&gt;distilbert/distilbert-base-cased&lt;/a&gt;" style="rounded=0;whiteSpace=wrap;html=1;fontSize=16;dashed=1;" parent="1" vertex="1">
          <mxGeometry x="1" y="630" width="250" height="50" as="geometry" />
        </mxCell>
        <mxCell id="sRtQ8-Bqzg0NsSKTlcAB-33" style="edgeStyle=orthogonalEdgeStyle;rounded=0;orthogonalLoop=1;jettySize=auto;html=1;exitX=0;exitY=0.25;exitDx=0;exitDy=0;entryX=1;entryY=0.5;entryDx=0;entryDy=0;dashed=1;endArrow=open;endFill=0;strokeWidth=2;" parent="1" source="sRtQ8-Bqzg0NsSKTlcAB-21" target="sRtQ8-Bqzg0NsSKTlcAB-31" edge="1">
          <mxGeometry relative="1" as="geometry">
            <mxPoint x="-54" y="500" as="targetPoint" />
          </mxGeometry>
        </mxCell>
        <mxCell id="sRtQ8-Bqzg0NsSKTlcAB-34" style="edgeStyle=orthogonalEdgeStyle;rounded=0;orthogonalLoop=1;jettySize=auto;html=1;exitX=0;exitY=0.75;exitDx=0;exitDy=0;entryX=1;entryY=0.5;entryDx=0;entryDy=0;dashed=1;endArrow=open;endFill=0;strokeWidth=2;" parent="1" source="sRtQ8-Bqzg0NsSKTlcAB-21" target="sRtQ8-Bqzg0NsSKTlcAB-32" edge="1">
          <mxGeometry relative="1" as="geometry" />
        </mxCell>
        <mxCell id="sRtQ8-Bqzg0NsSKTlcAB-21" value="complexity_classifier" style="rounded=0;whiteSpace=wrap;html=1;fontSize=16;dashed=1;" parent="1" vertex="1">
          <mxGeometry x="-4" y="510" width="260" height="50" as="geometry" />
        </mxCell>
        <mxCell id="sRtQ8-Bqzg0NsSKTlcAB-43" style="edgeStyle=orthogonalEdgeStyle;rounded=0;orthogonalLoop=1;jettySize=auto;html=1;exitX=0;exitY=0.5;exitDx=0;exitDy=0;entryX=1;entryY=0.5;entryDx=0;entryDy=0;dashed=1;strokeWidth=2;endArrow=open;endFill=0;strokeColor=#0000FF;" parent="1" source="sRtQ8-Bqzg0NsSKTlcAB-23" target="sRtQ8-Bqzg0NsSKTlcAB-44" edge="1">
          <mxGeometry relative="1" as="geometry">
            <mxPoint x="-74" y="765" as="targetPoint" />
          </mxGeometry>
        </mxCell>
        <mxCell id="sRtQ8-Bqzg0NsSKTlcAB-23" value="talk_classifier" style="rounded=0;whiteSpace=wrap;html=1;fontSize=16;dashed=1;" parent="1" vertex="1">
          <mxGeometry x="1" y="740" width="245" height="50" as="geometry" />
        </mxCell>
        <mxCell id="sRtQ8-Bqzg0NsSKTlcAB-57" value="IV. find_planner_agent" style="edgeStyle=orthogonalEdgeStyle;rounded=0;orthogonalLoop=1;jettySize=auto;html=1;exitX=0;exitY=0.5;exitDx=0;exitDy=0;entryX=1;entryY=0.5;entryDx=0;entryDy=0;dashed=1;strokeWidth=2;endArrow=open;endFill=0;strokeColor=#FF0000;fontSize=15;fontStyle=1;fontColor=#FF0000;" parent="1" source="sRtQ8-Bqzg0NsSKTlcAB-31" target="sRtQ8-Bqzg0NsSKTlcAB-52" edge="1">
          <mxGeometry x="-0.1034" y="35" relative="1" as="geometry">
            <mxPoint x="1" as="offset" />
          </mxGeometry>
        </mxCell>
        <mxCell id="sRtQ8-Bqzg0NsSKTlcAB-31" value="HIGH" style="rounded=0;whiteSpace=wrap;html=1;fontSize=16;dashed=1;strokeColor=#FF0000;strokeWidth=2;fontStyle=1;fontColor=#FF0000;" parent="1" vertex="1">
          <mxGeometry x="-121.5" y="460" width="50" height="50" as="geometry" />
        </mxCell>
        <mxCell id="sRtQ8-Bqzg0NsSKTlcAB-32" value="LOW" style="rounded=0;whiteSpace=wrap;html=1;fontSize=16;gradientColor=none;strokeColor=#0000FF;strokeWidth=2;dashed=1;fontColor=#0000FF;fontStyle=1" parent="1" vertex="1">
          <mxGeometry x="-121.5" y="560" width="50" height="50" as="geometry" />
        </mxCell>
        <mxCell id="sRtQ8-Bqzg0NsSKTlcAB-46" style="edgeStyle=orthogonalEdgeStyle;rounded=0;orthogonalLoop=1;jettySize=auto;html=1;exitX=0;exitY=0.5;exitDx=0;exitDy=0;entryX=1;entryY=0.5;entryDx=0;entryDy=0;dashed=1;strokeWidth=2;endArrow=open;endFill=0;strokeColor=#0000FF;" parent="1" source="sRtQ8-Bqzg0NsSKTlcAB-40" target="sRtQ8-Bqzg0NsSKTlcAB-45" edge="1">
          <mxGeometry relative="1" as="geometry" />
        </mxCell>
        <mxCell id="sRtQ8-Bqzg0NsSKTlcAB-40" value="&lt;a href=&quot;https://huggingface.co/facebook/bart-large-mnli&quot;&gt;facebook/bart-large-mnli&lt;/a&gt;" style="rounded=0;whiteSpace=wrap;html=1;fontSize=16;dashed=1;" parent="1" vertex="1">
          <mxGeometry x="-4" y="850" width="250" height="50" as="geometry" />
        </mxCell>
        <mxCell id="sRtQ8-Bqzg0NsSKTlcAB-42" value="zore-shot-classification" style="text;html=1;align=center;verticalAlign=middle;resizable=0;points=[];autosize=1;strokeColor=none;fillColor=none;" parent="1" vertex="1">
          <mxGeometry x="58.5" y="827" width="150" height="30" as="geometry" />
        </mxCell>
        <mxCell id="sRtQ8-Bqzg0NsSKTlcAB-47" value="compare" style="edgeStyle=orthogonalEdgeStyle;rounded=0;orthogonalLoop=1;jettySize=auto;html=1;exitX=0.5;exitY=1;exitDx=0;exitDy=0;entryX=0.5;entryY=0;entryDx=0;entryDy=0;endArrow=open;endFill=0;startArrow=open;startFill=0;" parent="1" source="sRtQ8-Bqzg0NsSKTlcAB-44" target="sRtQ8-Bqzg0NsSKTlcAB-45" edge="1">
          <mxGeometry relative="1" as="geometry" />
        </mxCell>
        <mxCell id="sRtQ8-Bqzg0NsSKTlcAB-44" value="score" style="rounded=0;whiteSpace=wrap;html=1;fontSize=16;" parent="1" vertex="1">
          <mxGeometry x="-121.5" y="740" width="50" height="50" as="geometry" />
        </mxCell>
        <mxCell id="sRtQ8-Bqzg0NsSKTlcAB-45" value="score" style="rounded=0;whiteSpace=wrap;html=1;fontSize=16;" parent="1" vertex="1">
          <mxGeometry x="-121.5" y="850" width="50" height="50" as="geometry" />
        </mxCell>
        <mxCell id="sRtQ8-Bqzg0NsSKTlcAB-52" value="PlannerAgent" style="rounded=0;whiteSpace=wrap;html=1;fontSize=16;strokeColor=#FF0000;fontStyle=1;fontColor=#FF0000;strokeWidth=2;" parent="1" vertex="1">
          <mxGeometry x="-314" y="460" width="120" height="50" as="geometry" />
        </mxCell>
        <mxCell id="sRtQ8-Bqzg0NsSKTlcAB-53" value="BrowserAgent" style="rounded=0;whiteSpace=wrap;html=1;fontSize=16;strokeColor=#0000FF;strokeWidth=2;fontColor=#0000FF;fontStyle=1" parent="1" vertex="1">
          <mxGeometry x="-314" y="686" width="120" height="50" as="geometry" />
        </mxCell>
        <mxCell id="sRtQ8-Bqzg0NsSKTlcAB-54" value="FileAgent" style="rounded=0;whiteSpace=wrap;html=1;fontSize=16;strokeColor=#0000FF;strokeWidth=2;fontColor=#0000FF;fontStyle=1" parent="1" vertex="1">
          <mxGeometry x="-314" y="756" width="120" height="50" as="geometry" />
        </mxCell>
        <mxCell id="sRtQ8-Bqzg0NsSKTlcAB-55" value="CoderAgent" style="rounded=0;whiteSpace=wrap;html=1;fontSize=16;strokeColor=#0000FF;strokeWidth=2;fontColor=#0000FF;fontStyle=1" parent="1" vertex="1">
          <mxGeometry x="-314" y="826" width="120" height="50" as="geometry" />
        </mxCell>
        <mxCell id="sRtQ8-Bqzg0NsSKTlcAB-56" value="CasualAgent" style="rounded=0;whiteSpace=wrap;html=1;fontSize=16;strokeColor=#0000FF;strokeWidth=2;fontColor=#0000FF;fontStyle=1" parent="1" vertex="1">
          <mxGeometry x="-314" y="896" width="120" height="50" as="geometry" />
        </mxCell>
        <mxCell id="sRtQ8-Bqzg0NsSKTlcAB-64" style="edgeStyle=orthogonalEdgeStyle;rounded=0;orthogonalLoop=1;jettySize=auto;html=1;exitX=1;exitY=0.5;exitDx=0;exitDy=0;startArrow=open;startFill=0;endArrow=none;dashed=1;strokeWidth=2;strokeColor=#0000FF;" parent="1" source="sRtQ8-Bqzg0NsSKTlcAB-62" edge="1">
          <mxGeometry relative="1" as="geometry">
            <mxPoint x="-124" y="821" as="targetPoint" />
          </mxGeometry>
        </mxCell>
        <mxCell id="sRtQ8-Bqzg0NsSKTlcAB-62" value="" style="rounded=0;whiteSpace=wrap;html=1;fontSize=16;dashed=1;strokeWidth=2;fontStyle=0;strokeColor=#0000FF;fillColor=none;" parent="1" vertex="1">
          <mxGeometry x="-334" y="666" width="160" height="310" as="geometry" />
        </mxCell>
      </root>
    </mxGraphModel>
  </diagram>
  <diagram id="QVxqKfViEUsK2WlN9m-f" name="agent">
    <mxGraphModel dx="2381" dy="815" grid="1" gridSize="10" guides="1" tooltips="1" connect="1" arrows="1" fold="1" page="1" pageScale="1" pageWidth="827" pageHeight="1169" math="0" shadow="0">
      <root>
        <mxCell id="0" />
        <mxCell id="1" parent="0" />
        <mxCell id="yQ91niftLb7UCaJ8HHa7-8" value="" style="rounded=0;whiteSpace=wrap;html=1;fontSize=16;fillColor=none;dashed=1;" parent="1" vertex="1">
          <mxGeometry x="-300" y="620" width="370" height="300" as="geometry" />
        </mxCell>
        <mxCell id="yQ91niftLb7UCaJ8HHa7-3" value="FileAgentPrompt" style="rounded=0;whiteSpace=wrap;html=1;fontSize=16;strokeColor=#666666;align=center;verticalAlign=middle;fontFamily=Helvetica;fontColor=#333333;fillColor=#f5f5f5;" parent="1" vertex="1">
          <mxGeometry x="-140" y="820" width="180" height="50" as="geometry" />
        </mxCell>
        <mxCell id="yQ91niftLb7UCaJ8HHa7-4" value="Query" style="rounded=0;whiteSpace=wrap;html=1;fontSize=16;strokeColor=#666666;align=center;verticalAlign=middle;fontFamily=Helvetica;fontColor=#333333;fillColor=#f5f5f5;" parent="1" vertex="1">
          <mxGeometry x="-140" y="770" width="180" height="50" as="geometry" />
        </mxCell>
        <mxCell id="yQ91niftLb7UCaJ8HHa7-5" value="system" style="rounded=0;whiteSpace=wrap;html=1;fontSize=16;strokeColor=#666666;align=center;verticalAlign=middle;fontFamily=Helvetica;fontColor=#333333;fillColor=#f5f5f5;" parent="1" vertex="1">
          <mxGeometry x="-260" y="820" width="120" height="50" as="geometry" />
        </mxCell>
        <mxCell id="yQ91niftLb7UCaJ8HHa7-6" value="user" style="rounded=0;whiteSpace=wrap;html=1;fontSize=16;strokeColor=#666666;align=center;verticalAlign=middle;fontFamily=Helvetica;fontColor=#333333;fillColor=#f5f5f5;" parent="1" vertex="1">
          <mxGeometry x="-260" y="770" width="120" height="50" as="geometry" />
        </mxCell>
        <mxCell id="yQ91niftLb7UCaJ8HHa7-17" style="edgeStyle=orthogonalEdgeStyle;rounded=0;orthogonalLoop=1;jettySize=auto;html=1;exitX=0.5;exitY=0;exitDx=0;exitDy=0;entryX=0.5;entryY=1;entryDx=0;entryDy=0;dashed=1;endArrow=open;endFill=0;strokeWidth=2;fillColor=#f5f5f5;strokeColor=#666666;" parent="1" source="yQ91niftLb7UCaJ8HHa7-7" target="yQ91niftLb7UCaJ8HHa7-15" edge="1">
          <mxGeometry relative="1" as="geometry" />
        </mxCell>
        <mxCell id="yQ91niftLb7UCaJ8HHa7-18" style="edgeStyle=orthogonalEdgeStyle;rounded=0;orthogonalLoop=1;jettySize=auto;html=1;entryX=0.5;entryY=0;entryDx=0;entryDy=0;dashed=1;endArrow=open;endFill=0;strokeWidth=2;fillColor=#f5f5f5;strokeColor=#666666;" parent="1" source="yQ91niftLb7UCaJ8HHa7-7" target="yQ91niftLb7UCaJ8HHa7-13" edge="1">
          <mxGeometry relative="1" as="geometry">
            <mxPoint x="290" y="830" as="targetPoint" />
          </mxGeometry>
        </mxCell>
        <mxCell id="yQ91niftLb7UCaJ8HHa7-41" style="edgeStyle=orthogonalEdgeStyle;rounded=0;orthogonalLoop=1;jettySize=auto;html=1;exitX=1;exitY=0.5;exitDx=0;exitDy=0;entryX=0;entryY=0.5;entryDx=0;entryDy=0;endArrow=open;endFill=0;" parent="1" source="yQ91niftLb7UCaJ8HHa7-7" target="yQ91niftLb7UCaJ8HHa7-39" edge="1">
          <mxGeometry relative="1" as="geometry" />
        </mxCell>
        <mxCell id="yQ91niftLb7UCaJ8HHa7-7" value="Provider" style="rounded=0;whiteSpace=wrap;html=1;fontSize=16;" parent="1" vertex="1">
          <mxGeometry x="230" y="800" width="120" height="50" as="geometry" />
        </mxCell>
        <mxCell id="yQ91niftLb7UCaJ8HHa7-10" value="I. respond" style="edgeStyle=orthogonalEdgeStyle;rounded=0;orthogonalLoop=1;jettySize=auto;html=1;exitX=1;exitY=0.5;exitDx=0;exitDy=0;entryX=0;entryY=0.5;entryDx=0;entryDy=0;fontSize=15;dashed=1;strokeWidth=2;endArrow=open;endFill=0;fontStyle=1;fillColor=#f5f5f5;strokeColor=#666666;" parent="1" source="yQ91niftLb7UCaJ8HHa7-2" target="yQ91niftLb7UCaJ8HHa7-7" edge="1">
          <mxGeometry relative="1" as="geometry">
            <mxPoint as="offset" />
          </mxGeometry>
        </mxCell>
        <mxCell id="yQ91niftLb7UCaJ8HHa7-9" value="Memory" style="text;html=1;align=center;verticalAlign=middle;resizable=0;points=[];autosize=1;strokeColor=none;fillColor=none;fontSize=15;fontStyle=1" parent="1" vertex="1">
          <mxGeometry x="-300" y="620" width="80" height="30" as="geometry" />
        </mxCell>
        <mxCell id="yQ91niftLb7UCaJ8HHa7-13" value="reasoning" style="rounded=0;whiteSpace=wrap;html=1;fontSize=16;" parent="1" vertex="1">
          <mxGeometry x="230" y="890" width="120" height="50" as="geometry" />
        </mxCell>
        <mxCell id="yQ91niftLb7UCaJ8HHa7-19" value="II. push" style="edgeStyle=orthogonalEdgeStyle;rounded=0;orthogonalLoop=1;jettySize=auto;html=1;exitX=0;exitY=0.5;exitDx=0;exitDy=0;entryX=1;entryY=0.5;entryDx=0;entryDy=0;fontSize=15;fontStyle=1;fillColor=#f5f5f5;strokeColor=#666666;dashed=1;strokeWidth=2;endArrow=open;endFill=0;" parent="1" source="yQ91niftLb7UCaJ8HHa7-15" target="yQ91niftLb7UCaJ8HHa7-21" edge="1">
          <mxGeometry relative="1" as="geometry">
            <mxPoint x="100" y="675" as="targetPoint" />
          </mxGeometry>
        </mxCell>
        <mxCell id="yQ91niftLb7UCaJ8HHa7-15" value="answer" style="rounded=0;whiteSpace=wrap;html=1;fontSize=16;" parent="1" vertex="1">
          <mxGeometry x="230" y="720" width="120" height="50" as="geometry" />
        </mxCell>
        <mxCell id="yQ91niftLb7UCaJ8HHa7-20" value="assistant" style="rounded=0;whiteSpace=wrap;html=1;fontSize=16;fillColor=#ffe6cc;strokeColor=#d79b00;" parent="1" vertex="1">
          <mxGeometry x="-260" y="720" width="120" height="50" as="geometry" />
        </mxCell>
        <mxCell id="yQ91niftLb7UCaJ8HHa7-21" value="answer" style="rounded=0;whiteSpace=wrap;html=1;fontSize=16;fillColor=#ffe6cc;strokeColor=#d79b00;" parent="1" vertex="1">
          <mxGeometry x="-140" y="720" width="180" height="50" as="geometry" />
        </mxCell>
        <mxCell id="yQ91niftLb7UCaJ8HHa7-25" value="block" style="rounded=0;whiteSpace=wrap;html=1;fontSize=16;" parent="1" vertex="1">
          <mxGeometry x="224" y="610" width="120" height="50" as="geometry" />
        </mxCell>
        <mxCell id="yQ91niftLb7UCaJ8HHa7-28" value="block" style="rounded=0;whiteSpace=wrap;html=1;fontSize=16;" parent="1" vertex="1">
          <mxGeometry x="229" y="604" width="120" height="50" as="geometry" />
        </mxCell>
        <mxCell id="yQ91niftLb7UCaJ8HHa7-31" value="IV. execute" style="edgeStyle=orthogonalEdgeStyle;rounded=0;orthogonalLoop=1;jettySize=auto;html=1;exitX=0.5;exitY=0;exitDx=0;exitDy=0;entryX=0.5;entryY=1;entryDx=0;entryDy=0;dashed=1;endArrow=open;endFill=0;strokeWidth=2;fillColor=#f5f5f5;strokeColor=#0000FF;fontSize=15;fontStyle=1;fontColor=#0000FF;" parent="1" source="yQ91niftLb7UCaJ8HHa7-28" target="yQ91niftLb7UCaJ8HHa7-30" edge="1">
          <mxGeometry relative="1" as="geometry">
            <mxPoint x="290" y="560" as="targetPoint" />
            <mxPoint as="offset" />
          </mxGeometry>
        </mxCell>
        <mxCell id="yQ91niftLb7UCaJ8HHa7-29" value="block" style="rounded=0;whiteSpace=wrap;html=1;fontSize=16;" parent="1" vertex="1">
          <mxGeometry x="234" y="597" width="120" height="50" as="geometry" />
        </mxCell>
        <mxCell id="yQ91niftLb7UCaJ8HHa7-26" value="III. load_exec_block" style="edgeStyle=orthogonalEdgeStyle;rounded=0;orthogonalLoop=1;jettySize=auto;html=1;exitX=0.5;exitY=0;exitDx=0;exitDy=0;entryX=0.5;entryY=1;entryDx=0;entryDy=0;dashed=1;endArrow=open;endFill=0;strokeWidth=2;fillColor=#f5f5f5;strokeColor=#0000FF;fontStyle=1;fontSize=15;fontColor=#0000FF;" parent="1" source="yQ91niftLb7UCaJ8HHa7-15" target="yQ91niftLb7UCaJ8HHa7-28" edge="1">
          <mxGeometry relative="1" as="geometry" />
        </mxCell>
        <mxCell id="yQ91niftLb7UCaJ8HHa7-33" value="VI. push" style="edgeStyle=orthogonalEdgeStyle;rounded=0;orthogonalLoop=1;jettySize=auto;html=1;entryX=1;entryY=0.5;entryDx=0;entryDy=0;exitX=0;exitY=0.5;exitDx=0;exitDy=0;fontSize=15;fontStyle=1;fillColor=#f5f5f5;strokeColor=#666666;dashed=1;strokeWidth=2;endArrow=open;endFill=0;" parent="1" source="yQ91niftLb7UCaJ8HHa7-32" target="yQ91niftLb7UCaJ8HHa7-35" edge="1">
          <mxGeometry x="0.0021" relative="1" as="geometry">
            <mxPoint x="60" y="560" as="targetPoint" />
            <mxPoint x="220" y="420" as="sourcePoint" />
            <mxPoint as="offset" />
          </mxGeometry>
        </mxCell>
        <mxCell id="yQ91niftLb7UCaJ8HHa7-36" value="V. interpreter_feedback" style="edgeStyle=orthogonalEdgeStyle;rounded=0;orthogonalLoop=1;jettySize=auto;html=1;exitX=0.5;exitY=0;exitDx=0;exitDy=0;entryX=0.5;entryY=1;entryDx=0;entryDy=0;dashed=1;endArrow=open;endFill=0;strokeWidth=2;fillColor=#f5f5f5;strokeColor=#0000FF;fontSize=15;fontStyle=1;fontColor=#0000FF;" parent="1" source="yQ91niftLb7UCaJ8HHa7-30" target="yQ91niftLb7UCaJ8HHa7-32" edge="1">
          <mxGeometry relative="1" as="geometry">
            <mxPoint as="offset" />
          </mxGeometry>
        </mxCell>
        <mxCell id="yQ91niftLb7UCaJ8HHa7-38" value="&lt;font style=&quot;font-size: 15px;&quot;&gt;&lt;b&gt;VII. execution_failure_check&lt;/b&gt;&lt;/font&gt;" style="edgeStyle=orthogonalEdgeStyle;rounded=0;orthogonalLoop=1;jettySize=auto;html=1;exitX=0;exitY=0.5;exitDx=0;exitDy=0;entryX=1;entryY=0.5;entryDx=0;entryDy=0;dashed=1;strokeWidth=2;endArrow=open;endFill=0;fillColor=#f5f5f5;strokeColor=#0000FF;fontColor=#0000FF;" parent="1" source="yQ91niftLb7UCaJ8HHa7-30" target="yQ91niftLb7UCaJ8HHa7-37" edge="1">
          <mxGeometry relative="1" as="geometry" />
        </mxCell>
        <mxCell id="yQ91niftLb7UCaJ8HHa7-30" value="output" style="rounded=0;whiteSpace=wrap;html=1;fontSize=16;" parent="1" vertex="1">
          <mxGeometry x="229" y="490" width="120" height="50" as="geometry" />
        </mxCell>
        <mxCell id="yQ91niftLb7UCaJ8HHa7-32" value="feedback" style="rounded=0;whiteSpace=wrap;html=1;fontSize=16;" parent="1" vertex="1">
          <mxGeometry x="229" y="390" width="120" height="50" as="geometry" />
        </mxCell>
        <mxCell id="yQ91niftLb7UCaJ8HHa7-34" value="user" style="rounded=0;whiteSpace=wrap;html=1;fontSize=16;fillColor=#ffe6cc;strokeColor=#d79b00;" parent="1" vertex="1">
          <mxGeometry x="-260" y="670" width="120" height="50" as="geometry" />
        </mxCell>
        <mxCell id="yQ91niftLb7UCaJ8HHa7-35" value="feedback" style="rounded=0;whiteSpace=wrap;html=1;fontSize=16;fillColor=#ffe6cc;strokeColor=#d79b00;" parent="1" vertex="1">
          <mxGeometry x="-140" y="670" width="180" height="50" as="geometry" />
        </mxCell>
        <mxCell id="yQ91niftLb7UCaJ8HHa7-45" value="VIII. returen" style="edgeStyle=orthogonalEdgeStyle;rounded=0;orthogonalLoop=1;jettySize=auto;html=1;exitX=0;exitY=0.5;exitDx=0;exitDy=0;dashed=1;endArrow=open;endFill=0;strokeWidth=2;fillColor=#f5f5f5;strokeColor=#666666;fontSize=15;fontStyle=1" parent="1" source="yQ91niftLb7UCaJ8HHa7-37" edge="1">
          <mxGeometry relative="1" as="geometry">
            <mxPoint x="-350" y="515" as="targetPoint" />
          </mxGeometry>
        </mxCell>
        <mxCell id="yQ91niftLb7UCaJ8HHa7-46" value="VIII. continue" style="edgeStyle=orthogonalEdgeStyle;rounded=0;orthogonalLoop=1;jettySize=auto;html=1;exitX=0.5;exitY=1;exitDx=0;exitDy=0;entryX=0.5;entryY=0;entryDx=0;entryDy=0;dashed=1;endArrow=open;endFill=0;strokeWidth=2;fillColor=#f5f5f5;strokeColor=#666666;fontSize=15;fontStyle=1" parent="1" source="yQ91niftLb7UCaJ8HHa7-37" target="yQ91niftLb7UCaJ8HHa7-8" edge="1">
          <mxGeometry relative="1" as="geometry" />
        </mxCell>
        <mxCell id="yQ91niftLb7UCaJ8HHa7-37" value="success" style="rounded=0;whiteSpace=wrap;html=1;fontSize=16;" parent="1" vertex="1">
          <mxGeometry x="-175" y="490" width="120" height="50" as="geometry" />
        </mxCell>
        <mxCell id="yQ91niftLb7UCaJ8HHa7-39" value="llm" style="rounded=0;whiteSpace=wrap;html=1;fontSize=16;dashed=1;" parent="1" vertex="1">
          <mxGeometry x="427" y="800" width="120" height="50" as="geometry" />
        </mxCell>
        <mxCell id="yQ91niftLb7UCaJ8HHa7-2" value="" style="rounded=0;whiteSpace=wrap;html=1;fontSize=16;dashed=1;strokeWidth=2;fillColor=none;fontColor=#333333;strokeColor=#666666;" parent="1" vertex="1">
          <mxGeometry x="-270" y="760" width="320" height="130" as="geometry" />
        </mxCell>
        <mxCell id="yQ91niftLb7UCaJ8HHa7-40" value="init" style="text;html=1;align=center;verticalAlign=middle;resizable=0;points=[];autosize=1;strokeColor=none;fillColor=none;fontSize=15;fontStyle=1" parent="1" vertex="1">
          <mxGeometry x="-270" y="890" width="40" height="30" as="geometry" />
        </mxCell>
        <mxCell id="yQ91niftLb7UCaJ8HHa7-47" value="&lt;span style=&quot;background-color: rgb(0, 0, 255);&quot;&gt;&amp;nbsp; &amp;nbsp; &amp;nbsp;&amp;nbsp;&lt;/span&gt; &amp;nbsp;agent method&amp;nbsp;" style="text;html=1;align=center;verticalAlign=middle;resizable=0;points=[];autosize=1;strokeColor=none;fillColor=none;fontSize=16;fontStyle=1;fontColor=#0000FF;" parent="1" vertex="1">
          <mxGeometry x="-280" y="410" width="160" height="30" as="geometry" />
        </mxCell>
      </root>
    </mxGraphModel>
  </diagram>
  <diagram id="hGUnUMe2l3yX0dyfEWdG" name="browser_agent">
    <mxGraphModel dx="1956" dy="1482" grid="1" gridSize="10" guides="1" tooltips="1" connect="1" arrows="1" fold="1" page="1" pageScale="1" pageWidth="827" pageHeight="1169" math="0" shadow="0">
      <root>
        <mxCell id="0" />
        <mxCell id="1" parent="0" />
        <mxCell id="w6qKW-RbsmwDSW-4Z62z-6" value="" style="edgeStyle=orthogonalEdgeStyle;rounded=0;orthogonalLoop=1;jettySize=auto;html=1;" edge="1" parent="1" source="w6qKW-RbsmwDSW-4Z62z-1" target="w6qKW-RbsmwDSW-4Z62z-5">
          <mxGeometry relative="1" as="geometry" />
        </mxCell>
        <UserObject label="Current date: {self.date}&#xa;Make a efficient search engine query to help users with their request:&#xa;{user_prompt}&#xa;Example:&#xa;User: &quot;go to twitter, login with username toto and password pass79 to my twitter and say hello everyone &quot;&#xa;You: search: Twitter login page. &#xa;&#xa;User: &quot;I need info on the best laptops for AI this year.&quot;&#xa;You: &quot;search: best laptops 2025 to run Machine Learning model, reviews&quot;&#xa;&#xa;User: &quot;Search for recent news about space missions.&quot;&#xa;You: &quot;search: Recent space missions news, {self.date}&quot;&#xa;&#xa;Do not explain, do not write anything beside the search query.&#xa;Except if query does not make any sense for a web search then explain why and say {Action.REQUEST_EXIT.value}&#xa;Do not try to answer query. you can only formulate search term or exit." id="w6qKW-RbsmwDSW-4Z62z-1">
          <mxCell style="text;whiteSpace=wrap;strokeColor=default;" vertex="1" parent="1">
            <mxGeometry x="160" y="380" width="560" height="260" as="geometry" />
          </mxCell>
        </UserObject>
        <mxCell id="w6qKW-RbsmwDSW-4Z62z-4" value="" style="edgeStyle=orthogonalEdgeStyle;rounded=0;orthogonalLoop=1;jettySize=auto;html=1;dashed=1;strokeWidth=2;endArrow=open;endFill=0;startArrow=none;startFill=0;" edge="1" parent="1" source="w6qKW-RbsmwDSW-4Z62z-3" target="w6qKW-RbsmwDSW-4Z62z-1">
          <mxGeometry relative="1" as="geometry" />
        </mxCell>
        <mxCell id="w6qKW-RbsmwDSW-4Z62z-34" value="" style="edgeStyle=orthogonalEdgeStyle;rounded=0;orthogonalLoop=1;jettySize=auto;html=1;entryX=0.133;entryY=0.001;entryDx=0;entryDy=0;entryPerimeter=0;dashed=1;strokeWidth=2;endArrow=open;endFill=0;startArrow=none;startFill=0;" edge="1" parent="1" source="w6qKW-RbsmwDSW-4Z62z-3" target="w6qKW-RbsmwDSW-4Z62z-17">
          <mxGeometry relative="1" as="geometry">
            <mxPoint x="440" y="840" as="targetPoint" />
          </mxGeometry>
        </mxCell>
        <mxCell id="w6qKW-RbsmwDSW-4Z62z-3" value="&lt;span style=&quot;font-size: 16px; text-wrap-mode: wrap;&quot;&gt;user_prompt&lt;/span&gt;" style="text;html=1;align=center;verticalAlign=middle;resizable=0;points=[];autosize=1;strokeColor=default;fillColor=none;" vertex="1" parent="1">
          <mxGeometry x="385" y="730" width="110" height="30" as="geometry" />
        </mxCell>
        <mxCell id="w6qKW-RbsmwDSW-4Z62z-8" value="web_search" style="edgeStyle=orthogonalEdgeStyle;rounded=0;orthogonalLoop=1;jettySize=auto;html=1;dashed=1;strokeWidth=2;endArrow=open;endFill=0;startArrow=none;startFill=0;" edge="1" parent="1" source="w6qKW-RbsmwDSW-4Z62z-5" target="w6qKW-RbsmwDSW-4Z62z-7">
          <mxGeometry relative="1" as="geometry" />
        </mxCell>
        <mxCell id="w6qKW-RbsmwDSW-4Z62z-5" value="&lt;span style=&quot;font-size: 16px; text-wrap-mode: wrap;&quot;&gt;ai_prompt&lt;/span&gt;" style="text;html=1;align=center;verticalAlign=middle;resizable=0;points=[];autosize=1;strokeColor=default;fillColor=none;" vertex="1" parent="1">
          <mxGeometry x="369" y="300" width="90" height="30" as="geometry" />
        </mxCell>
        <mxCell id="w6qKW-RbsmwDSW-4Z62z-10" value="" style="edgeStyle=orthogonalEdgeStyle;rounded=0;orthogonalLoop=1;jettySize=auto;html=1;dashed=1;strokeWidth=2;endArrow=open;endFill=0;startArrow=none;startFill=0;" edge="1" parent="1" source="w6qKW-RbsmwDSW-4Z62z-7" target="w6qKW-RbsmwDSW-4Z62z-9">
          <mxGeometry relative="1" as="geometry" />
        </mxCell>
        <mxCell id="w6qKW-RbsmwDSW-4Z62z-7" value="&lt;a href=&quot;https://docs.searxng.org/&quot;&gt;SearXNG&lt;/a&gt;" style="rounded=0;whiteSpace=wrap;html=1;fontSize=16;" vertex="1" parent="1">
          <mxGeometry x="680" y="250" width="120" height="50" as="geometry" />
        </mxCell>
        <mxCell id="w6qKW-RbsmwDSW-4Z62z-12" value="" style="edgeStyle=orthogonalEdgeStyle;rounded=0;orthogonalLoop=1;jettySize=auto;html=1;dashed=1;strokeWidth=2;endArrow=open;endFill=0;startArrow=none;startFill=0;" edge="1" parent="1" source="w6qKW-RbsmwDSW-4Z62z-9" target="w6qKW-RbsmwDSW-4Z62z-11">
          <mxGeometry relative="1" as="geometry" />
        </mxCell>
        <mxCell id="w6qKW-RbsmwDSW-4Z62z-9" value="&lt;span style=&quot;font-size: 16px; text-wrap-mode: wrap;&quot;&gt;search_result&lt;/span&gt;" style="text;html=1;align=center;verticalAlign=middle;resizable=0;points=[];autosize=1;strokeColor=default;fillColor=none;" vertex="1" parent="1">
          <mxGeometry x="940" y="260" width="120" height="30" as="geometry" />
        </mxCell>
        <mxCell id="w6qKW-RbsmwDSW-4Z62z-14" value="" style="edgeStyle=orthogonalEdgeStyle;rounded=0;orthogonalLoop=1;jettySize=auto;html=1;dashed=1;strokeWidth=2;endArrow=open;endFill=0;startArrow=none;startFill=0;" edge="1" parent="1" source="w6qKW-RbsmwDSW-4Z62z-11" target="w6qKW-RbsmwDSW-4Z62z-13">
          <mxGeometry relative="1" as="geometry" />
        </mxCell>
        <mxCell id="w6qKW-RbsmwDSW-4Z62z-11" value="&lt;div&gt;Based on the search result:&lt;/div&gt;&lt;div&gt;{search_result}&lt;/div&gt;&lt;div&gt;Your goal is to find accurate and complete information to satisfy the user’s request.&lt;/div&gt;&lt;div&gt;User request: {user_prompt}&lt;/div&gt;&lt;div&gt;To proceed, choose a relevant link from the search results.&amp;nbsp;&lt;/div&gt;&lt;div&gt;&lt;span style=&quot;white-space: pre;&quot;&gt;&#x9;&lt;/span&gt;Announce your choice by saying: &quot;I will navigate to &amp;lt;link&amp;gt;&quot;&lt;/div&gt;&lt;div&gt;Do not explain your choice.&lt;/div&gt;" style="text;html=1;align=left;verticalAlign=middle;resizable=0;points=[];autosize=1;strokeColor=default;fillColor=none;" vertex="1" parent="1">
          <mxGeometry x="770" y="380" width="460" height="110" as="geometry" />
        </mxCell>
        <mxCell id="w6qKW-RbsmwDSW-4Z62z-16" value="select_link" style="edgeStyle=orthogonalEdgeStyle;rounded=0;orthogonalLoop=1;jettySize=auto;html=1;dashed=1;strokeWidth=2;endArrow=open;endFill=0;startArrow=none;startFill=0;" edge="1" parent="1" source="w6qKW-RbsmwDSW-4Z62z-13" target="w6qKW-RbsmwDSW-4Z62z-15">
          <mxGeometry relative="1" as="geometry" />
        </mxCell>
        <mxCell id="w6qKW-RbsmwDSW-4Z62z-13" value="choice_prompt" style="text;html=1;align=center;verticalAlign=middle;resizable=0;points=[];autosize=1;strokeColor=default;fillColor=none;" vertex="1" parent="1">
          <mxGeometry x="950" y="570" width="100" height="30" as="geometry" />
        </mxCell>
        <mxCell id="w6qKW-RbsmwDSW-4Z62z-19" value="go_to" style="edgeStyle=orthogonalEdgeStyle;rounded=0;orthogonalLoop=1;jettySize=auto;html=1;dashed=1;strokeWidth=2;endArrow=open;endFill=0;startArrow=none;startFill=0;" edge="1" parent="1" source="w6qKW-RbsmwDSW-4Z62z-15" target="w6qKW-RbsmwDSW-4Z62z-18">
          <mxGeometry relative="1" as="geometry" />
        </mxCell>
        <mxCell id="w6qKW-RbsmwDSW-4Z62z-15" value="link" style="text;html=1;align=center;verticalAlign=middle;resizable=0;points=[];autosize=1;strokeColor=default;fillColor=none;" vertex="1" parent="1">
          <mxGeometry x="980" y="670" width="40" height="30" as="geometry" />
        </mxCell>
        <mxCell id="w6qKW-RbsmwDSW-4Z62z-51" value="" style="edgeStyle=orthogonalEdgeStyle;rounded=0;orthogonalLoop=1;jettySize=auto;html=1;dashed=1;strokeWidth=2;endArrow=open;endFill=0;startArrow=none;startFill=0;" edge="1" parent="1" source="w6qKW-RbsmwDSW-4Z62z-17" target="w6qKW-RbsmwDSW-4Z62z-47">
          <mxGeometry relative="1" as="geometry" />
        </mxCell>
        <mxCell id="w6qKW-RbsmwDSW-4Z62z-57" value="" style="edgeStyle=orthogonalEdgeStyle;rounded=0;orthogonalLoop=1;jettySize=auto;html=1;entryX=-0.004;entryY=0.323;entryDx=0;entryDy=0;entryPerimeter=0;dashed=1;strokeWidth=2;endArrow=open;endFill=0;startArrow=none;startFill=0;" edge="1" parent="1" source="w6qKW-RbsmwDSW-4Z62z-17" target="w6qKW-RbsmwDSW-4Z62z-17">
          <mxGeometry relative="1" as="geometry">
            <mxPoint x="260" y="1370" as="targetPoint" />
            <Array as="points">
              <mxPoint x="360" y="1570" />
              <mxPoint x="360" y="1370" />
              <mxPoint x="440" y="1370" />
              <mxPoint x="440" y="1368" />
            </Array>
          </mxGeometry>
        </mxCell>
        <mxCell id="K-sp0ytXcgEdyFZVdkN0-1" value="" style="edgeStyle=orthogonalEdgeStyle;rounded=0;orthogonalLoop=1;jettySize=auto;html=1;entryX=0.25;entryY=1;entryDx=0;entryDy=0;exitX=0.001;exitY=0.135;exitDx=0;exitDy=0;exitPerimeter=0;dashed=1;endArrow=open;endFill=0;strokeWidth=2;" edge="1" parent="1" source="w6qKW-RbsmwDSW-4Z62z-17" target="w6qKW-RbsmwDSW-4Z62z-1">
          <mxGeometry relative="1" as="geometry" />
        </mxCell>
        <mxCell id="w6qKW-RbsmwDSW-4Z62z-17" value="&lt;div&gt;You are navigating the web.&lt;/div&gt;&lt;div&gt;&lt;br&gt;&lt;/div&gt;&lt;div&gt;**Current Context**&lt;/div&gt;&lt;div&gt;&lt;br&gt;&lt;/div&gt;&lt;div&gt;Webpage ({self.current_page}) content:&lt;/div&gt;&lt;div&gt;{page_text}&lt;/div&gt;&lt;div&gt;&lt;br&gt;&lt;/div&gt;&lt;div&gt;Allowed Navigation Links:&lt;/div&gt;&lt;div&gt;{&lt;span style=&quot;text-align: center;&quot;&gt;navigable_links&lt;/span&gt;}&lt;/div&gt;&lt;div&gt;&lt;br&gt;&lt;/div&gt;&lt;div&gt;Inputs forms:&lt;/div&gt;&lt;div style=&quot;&quot;&gt;{inputs_form_text}&lt;/div&gt;&lt;div&gt;&lt;br&gt;&lt;/div&gt;&lt;div&gt;End of webpage ({self.current_page}.&lt;/div&gt;&lt;div style=&quot;&quot;&gt;&lt;br&gt;&lt;/div&gt;&lt;div&gt;# Instruction&lt;/div&gt;&lt;div&gt;&lt;br&gt;&lt;/div&gt;&lt;div&gt;1. **Evaluate if the page is relevant for user’s query and document finding:**&lt;/div&gt;&lt;div&gt;&amp;nbsp; - If the page is relevant, extract and summarize key information in concise notes (Note: &amp;lt;your note&amp;gt;)&lt;/div&gt;&lt;div&gt;&amp;nbsp; - If page not relevant, state: &quot;Error: &amp;lt;specific reason the page does not address the query&amp;gt;&quot;&amp;nbsp;&lt;/div&gt;&lt;div&gt;&amp;nbsp; &amp;nbsp; and either return to the previous page or navigate to a new link.&lt;/div&gt;&lt;div&gt;&amp;nbsp; - Notes should be factual, useful summaries of relevant content, they should always include specific names or link.&amp;nbsp;&lt;/div&gt;&lt;div&gt;&amp;nbsp; &amp;nbsp; Written as: &quot;On &amp;lt;website URL&amp;gt;, &amp;lt;key fact 1&amp;gt;. &amp;lt;Key fact 2&amp;gt;. &amp;lt;Additional insight&amp;gt;.&quot;&amp;nbsp;&lt;/div&gt;&lt;div&gt;&amp;nbsp; &amp;nbsp; Avoid phrases like &quot;the page provides&quot; or &quot;I found that.&quot;&lt;/div&gt;&lt;div&gt;2. **Navigate to a link by either: **&lt;/div&gt;&lt;div&gt;&amp;nbsp; - Saying I will navigate to (write down the full URL) www.example.com/cats&lt;/div&gt;&lt;div&gt;&amp;nbsp; - Going back: If no link seems helpful, say: {Action.GO_BACK.value}.&lt;/div&gt;&lt;div&gt;3. **Fill forms on the page:**&lt;/div&gt;&lt;div&gt;&amp;nbsp; - Fill form only when relevant.&lt;/div&gt;&lt;div&gt;&amp;nbsp; - Use Login if username/password specified by user. For quick task create account, remember password in a note.&lt;/div&gt;&lt;div&gt;&amp;nbsp; - You can fill a form using [form_name](value). Don&#39;t {Action.GO_BACK.value} when filling form.&lt;/div&gt;&lt;div&gt;&amp;nbsp; - If a form is irrelevant or you lack informations (eg: don&#39;t know user email) leave it empty.&lt;/div&gt;&lt;div&gt;4. **Decide if you completed the task**&lt;/div&gt;&lt;div&gt;&amp;nbsp; - Check your notes. Do they fully answer the question? Did you verify with multiple pages?&lt;/div&gt;&lt;div&gt;&amp;nbsp; - Are you sure it’s correct?&lt;/div&gt;&lt;div&gt;&amp;nbsp; - If yes to all, say {Action.REQUEST_EXIT}.&lt;/div&gt;&lt;div&gt;&amp;nbsp; - If no, or a page lacks info, go to another link.&lt;/div&gt;&lt;div&gt;&amp;nbsp; - Never stop or ask the user for help.&lt;/div&gt;&lt;div&gt;&lt;br&gt;&lt;/div&gt;&lt;div&gt;**Rules:**&lt;/div&gt;&lt;div&gt;- Do not write &quot;The page talk about ...&quot;, write your finding on the page and how they contribute to an answer.&lt;/div&gt;&lt;div&gt;- Put note in a single paragraph.&lt;/div&gt;&lt;div&gt;- When you exit, explain why.&lt;/div&gt;&lt;div&gt;&lt;br&gt;&lt;/div&gt;&lt;div&gt;# Example:&lt;/div&gt;&lt;div&gt;&lt;br&gt;&lt;/div&gt;&lt;div&gt;Example 1 (useful page, no need go futher):&lt;/div&gt;&lt;div&gt;Note: According to karpathy site LeCun net is ...&lt;/div&gt;&lt;div&gt;No link seem useful to provide futher information.&lt;/div&gt;&lt;div&gt;Action: {Action.GO_BACK.value}&lt;/div&gt;&lt;div&gt;&lt;br&gt;&lt;/div&gt;&lt;div&gt;Example 2 (not useful, see useful link on page):&lt;/div&gt;&lt;div&gt;Error: reddit.com/welcome does not discuss anything related to the user’s query.&lt;/div&gt;&lt;div&gt;There is a link that could lead to the information.&lt;/div&gt;&lt;div&gt;Action: navigate to http://reddit.com/r/locallama&lt;/div&gt;&lt;div&gt;&lt;br&gt;&lt;/div&gt;&lt;div&gt;Example 3 (not useful, no related links):&lt;/div&gt;&lt;div&gt;Error: x.com does not discuss anything related to the user’s query and no navigation link are usefull.&lt;/div&gt;&lt;div&gt;Action: {Action.GO_BACK.value}&lt;/div&gt;&lt;div&gt;&lt;br&gt;&lt;/div&gt;&lt;div&gt;Example 3 (clear definitive query answer found or enought notes taken):&lt;/div&gt;&lt;div&gt;I took 10 notes so far with enought finding to answer user question.&lt;/div&gt;&lt;div&gt;Therefore I should exit the web browser.&lt;/div&gt;&lt;div&gt;Action: {Action.REQUEST_EXIT.value}&lt;/div&gt;&lt;div&gt;&lt;br&gt;&lt;/div&gt;&lt;div&gt;Example 4 (loging form visible):&lt;/div&gt;&lt;div&gt;&lt;br&gt;&lt;/div&gt;&lt;div&gt;Note: I am on the login page, I will type the given username and password.&amp;nbsp;&lt;/div&gt;&lt;div&gt;Action:&lt;/div&gt;&lt;div&gt;[username_field](David)&lt;/div&gt;&lt;div&gt;[password_field](edgerunners77)&lt;/div&gt;&lt;div&gt;&lt;br&gt;&lt;/div&gt;&lt;div&gt;Remember, user asked:&lt;/div&gt;&lt;div&gt;{user_prompt}&lt;/div&gt;&lt;div&gt;You previously took these notes:&lt;/div&gt;&lt;div&gt;{notes}&lt;/div&gt;&lt;div&gt;Do not Step-by-Step explanation. Write comprehensive Notes or Error as a long paragraph followed by your action.&lt;/div&gt;&lt;div&gt;You must always take notes.&lt;/div&gt;" style="text;html=1;align=left;verticalAlign=middle;resizable=0;points=[];autosize=1;strokeColor=default;fillColor=none;" vertex="1" parent="1">
          <mxGeometry x="450" y="1000" width="640" height="1140" as="geometry" />
        </mxCell>
        <mxCell id="w6qKW-RbsmwDSW-4Z62z-22" value="get_text" style="edgeStyle=orthogonalEdgeStyle;rounded=0;orthogonalLoop=1;jettySize=auto;html=1;exitX=0;exitY=0.5;exitDx=0;exitDy=0;dashed=1;strokeWidth=2;endArrow=open;endFill=0;startArrow=none;startFill=0;" edge="1" parent="1" source="w6qKW-RbsmwDSW-4Z62z-18" target="w6qKW-RbsmwDSW-4Z62z-21">
          <mxGeometry relative="1" as="geometry" />
        </mxCell>
        <mxCell id="w6qKW-RbsmwDSW-4Z62z-28" value="get_navigable" style="edgeStyle=orthogonalEdgeStyle;rounded=0;orthogonalLoop=1;jettySize=auto;html=1;dashed=1;strokeWidth=2;endArrow=open;endFill=0;startArrow=none;startFill=0;" edge="1" parent="1" source="w6qKW-RbsmwDSW-4Z62z-18" target="w6qKW-RbsmwDSW-4Z62z-23">
          <mxGeometry relative="1" as="geometry" />
        </mxCell>
        <mxCell id="w6qKW-RbsmwDSW-4Z62z-32" value="get_form_inputs" style="edgeStyle=orthogonalEdgeStyle;rounded=0;orthogonalLoop=1;jettySize=auto;html=1;exitX=1;exitY=0.5;exitDx=0;exitDy=0;dashed=1;strokeWidth=2;endArrow=open;endFill=0;startArrow=none;startFill=0;" edge="1" parent="1" source="w6qKW-RbsmwDSW-4Z62z-18" target="w6qKW-RbsmwDSW-4Z62z-29">
          <mxGeometry relative="1" as="geometry" />
        </mxCell>
        <mxCell id="w6qKW-RbsmwDSW-4Z62z-18" value="Browser" style="rounded=0;whiteSpace=wrap;html=1;fontSize=16;" vertex="1" parent="1">
          <mxGeometry x="940" y="780" width="120" height="50" as="geometry" />
        </mxCell>
        <mxCell id="w6qKW-RbsmwDSW-4Z62z-36" value="" style="edgeStyle=orthogonalEdgeStyle;rounded=0;orthogonalLoop=1;jettySize=auto;html=1;entryX=0.592;entryY=0.003;entryDx=0;entryDy=0;entryPerimeter=0;dashed=1;strokeWidth=2;endArrow=open;endFill=0;startArrow=none;startFill=0;" edge="1" parent="1" source="w6qKW-RbsmwDSW-4Z62z-21" target="w6qKW-RbsmwDSW-4Z62z-17">
          <mxGeometry relative="1" as="geometry">
            <mxPoint x="830" y="1060" as="targetPoint" />
          </mxGeometry>
        </mxCell>
        <mxCell id="w6qKW-RbsmwDSW-4Z62z-21" value="page_text" style="text;html=1;align=center;verticalAlign=middle;resizable=0;points=[];autosize=1;strokeColor=default;fillColor=none;" vertex="1" parent="1">
          <mxGeometry x="790" y="890" width="80" height="30" as="geometry" />
        </mxCell>
        <mxCell id="w6qKW-RbsmwDSW-4Z62z-38" value="" style="edgeStyle=orthogonalEdgeStyle;rounded=0;orthogonalLoop=1;jettySize=auto;html=1;entryX=0.858;entryY=0.001;entryDx=0;entryDy=0;entryPerimeter=0;dashed=1;strokeWidth=2;endArrow=open;endFill=0;startArrow=none;startFill=0;" edge="1" parent="1" source="w6qKW-RbsmwDSW-4Z62z-23" target="w6qKW-RbsmwDSW-4Z62z-17">
          <mxGeometry relative="1" as="geometry">
            <mxPoint x="1001" y="1060" as="targetPoint" />
          </mxGeometry>
        </mxCell>
        <mxCell id="w6qKW-RbsmwDSW-4Z62z-23" value="navigable_links" style="text;html=1;align=center;verticalAlign=middle;resizable=0;points=[];autosize=1;strokeColor=default;fillColor=none;" vertex="1" parent="1">
          <mxGeometry x="945" y="890" width="110" height="30" as="geometry" />
        </mxCell>
        <mxCell id="w6qKW-RbsmwDSW-4Z62z-42" value="" style="edgeStyle=orthogonalEdgeStyle;rounded=0;orthogonalLoop=1;jettySize=auto;html=1;entryX=0.969;entryY=-0.001;entryDx=0;entryDy=0;entryPerimeter=0;dashed=1;strokeWidth=2;endArrow=open;endFill=0;startArrow=none;startFill=0;exitX=0.497;exitY=1.033;exitDx=0;exitDy=0;exitPerimeter=0;" edge="1" parent="1" source="w6qKW-RbsmwDSW-4Z62z-29" target="w6qKW-RbsmwDSW-4Z62z-17">
          <mxGeometry relative="1" as="geometry">
            <mxPoint x="1164.9999999999995" y="1000" as="targetPoint" />
          </mxGeometry>
        </mxCell>
        <mxCell id="w6qKW-RbsmwDSW-4Z62z-29" value="input_form_text" style="text;html=1;align=center;verticalAlign=middle;resizable=0;points=[];autosize=1;strokeColor=default;fillColor=none;" vertex="1" parent="1">
          <mxGeometry x="1110" y="890" width="110" height="30" as="geometry" />
        </mxCell>
        <mxCell id="w6qKW-RbsmwDSW-4Z62z-58" value="" style="edgeStyle=orthogonalEdgeStyle;rounded=0;orthogonalLoop=1;jettySize=auto;html=1;entryX=0.006;entryY=0.723;entryDx=0;entryDy=0;entryPerimeter=0;startArrow=open;startFill=0;endArrow=none;dashed=1;strokeWidth=2;endFill=0;" edge="1" parent="1" source="w6qKW-RbsmwDSW-4Z62z-43" target="w6qKW-RbsmwDSW-4Z62z-17">
          <mxGeometry relative="1" as="geometry" />
        </mxCell>
        <mxCell id="w6qKW-RbsmwDSW-4Z62z-43" value="GO_BACK" style="text;html=1;align=center;verticalAlign=middle;resizable=0;points=[];autosize=1;strokeColor=default;fillColor=none;" vertex="1" parent="1">
          <mxGeometry x="305" y="1810" width="80" height="30" as="geometry" />
        </mxCell>
        <mxCell id="w6qKW-RbsmwDSW-4Z62z-59" value="" style="edgeStyle=orthogonalEdgeStyle;rounded=0;orthogonalLoop=1;jettySize=auto;html=1;entryX=0.003;entryY=0.841;entryDx=0;entryDy=0;entryPerimeter=0;startArrow=open;startFill=0;endArrow=none;dashed=1;strokeWidth=2;endFill=0;" edge="1" parent="1" source="w6qKW-RbsmwDSW-4Z62z-44" target="w6qKW-RbsmwDSW-4Z62z-17">
          <mxGeometry relative="1" as="geometry" />
        </mxCell>
        <mxCell id="w6qKW-RbsmwDSW-4Z62z-44" value="REQUEST_EXIT" style="text;html=1;align=center;verticalAlign=middle;resizable=0;points=[];autosize=1;strokeColor=default;fillColor=none;" vertex="1" parent="1">
          <mxGeometry x="285" y="1944" width="110" height="30" as="geometry" />
        </mxCell>
        <mxCell id="w6qKW-RbsmwDSW-4Z62z-45" value="FORM_FILLED" style="text;html=1;align=center;verticalAlign=middle;resizable=0;points=[];autosize=1;strokeColor=default;fillColor=none;" vertex="1" parent="1">
          <mxGeometry x="715" y="2590" width="110" height="30" as="geometry" />
        </mxCell>
        <mxCell id="w6qKW-RbsmwDSW-4Z62z-50" value="" style="edgeStyle=orthogonalEdgeStyle;rounded=0;orthogonalLoop=1;jettySize=auto;html=1;dashed=1;strokeWidth=2;endArrow=open;endFill=0;startArrow=none;startFill=0;" edge="1" parent="1" source="w6qKW-RbsmwDSW-4Z62z-46" target="w6qKW-RbsmwDSW-4Z62z-45">
          <mxGeometry relative="1" as="geometry" />
        </mxCell>
        <mxCell id="w6qKW-RbsmwDSW-4Z62z-53" value="" style="edgeStyle=orthogonalEdgeStyle;rounded=0;orthogonalLoop=1;jettySize=auto;html=1;entryX=0.998;entryY=0.599;entryDx=0;entryDy=0;entryPerimeter=0;dashed=1;strokeWidth=2;endArrow=open;endFill=0;startArrow=none;startFill=0;" edge="1" parent="1" source="w6qKW-RbsmwDSW-4Z62z-46" target="w6qKW-RbsmwDSW-4Z62z-17">
          <mxGeometry relative="1" as="geometry">
            <mxPoint x="1210" y="1660" as="targetPoint" />
            <Array as="points">
              <mxPoint x="1250" y="2450" />
              <mxPoint x="1250" y="1683" />
            </Array>
          </mxGeometry>
        </mxCell>
        <mxCell id="w6qKW-RbsmwDSW-4Z62z-46" value="&lt;div&gt;You are a web browser.&lt;/div&gt;&lt;div&gt;You just filled a form on the page.&lt;/div&gt;&lt;div&gt;Now you should see the result of the form submission on the page:&lt;/div&gt;&lt;div&gt;Page text:&lt;/div&gt;&lt;div&gt;{page_text}&lt;/div&gt;&lt;div&gt;The user asked: {user_prompt}&lt;/div&gt;&lt;div&gt;Does the page answer the user’s query now? Are you still on a login page or did you get redirected?&lt;/div&gt;&lt;div&gt;If it does, take notes of the useful information, write down result and say {Action.FORM_FILLED.value}.&lt;/div&gt;&lt;div&gt;if it doesn’t, say: Error: Attempt to fill form didn&#39;t work {Action.GO_BACK.value}.&lt;/div&gt;&lt;div&gt;If you were previously on a login form, no need to take notes.&lt;/div&gt;" style="text;html=1;align=left;verticalAlign=middle;resizable=0;points=[];autosize=1;strokeColor=default;fillColor=none;" vertex="1" parent="1">
          <mxGeometry x="485" y="2370" width="570" height="160" as="geometry" />
        </mxCell>
        <mxCell id="w6qKW-RbsmwDSW-4Z62z-49" value="" style="edgeStyle=orthogonalEdgeStyle;rounded=0;orthogonalLoop=1;jettySize=auto;html=1;dashed=1;strokeWidth=2;endArrow=open;endFill=0;startArrow=none;startFill=0;" edge="1" parent="1" source="w6qKW-RbsmwDSW-4Z62z-47" target="w6qKW-RbsmwDSW-4Z62z-46">
          <mxGeometry relative="1" as="geometry">
            <mxPoint x="910" y="2310" as="targetPoint" />
          </mxGeometry>
        </mxCell>
        <mxCell id="w6qKW-RbsmwDSW-4Z62z-47" value="[form_name](value)" style="text;html=1;align=center;verticalAlign=middle;resizable=0;points=[];autosize=1;strokeColor=default;fillColor=none;" vertex="1" parent="1">
          <mxGeometry x="705" y="2250" width="130" height="30" as="geometry" />
        </mxCell>
      </root>
    </mxGraphModel>
  </diagram>
</mxfile>
